<?xml version="1.0" encoding="UTF-8" standalone="no"?>
<svg
   xmlns:dc="http://purl.org/dc/elements/1.1/"
   xmlns:cc="http://creativecommons.org/ns#"
   xmlns:rdf="http://www.w3.org/1999/02/22-rdf-syntax-ns#"
   xmlns:svg="http://www.w3.org/2000/svg"
   xmlns="http://www.w3.org/2000/svg"
   xmlns:sodipodi="http://sodipodi.sourceforge.net/DTD/sodipodi-0.dtd"
   xmlns:inkscape="http://www.inkscape.org/namespaces/inkscape"
   width="140"
   height="140"
   viewBox="0 0 106 106"
   id="AVATAR"
   version="1.1"
   inkscape:version="0.91 r13725"
   sodipodi:docname="AVATAR.svg">
  <defs
     id="defs4309" />
  <sodipodi:namedview
     pagecolor="#ffffff"
     bordercolor="#666666"
     borderopacity="1"
     objecttolerance="10"
     gridtolerance="10"
     guidetolerance="10"
     inkscape:pageopacity="0"
     inkscape:pageshadow="2"
     inkscape:window-width="1401"
     inkscape:window-height="855"
     id="namedview4307"
     showgrid="false"
     inkscape:zoom="1.6857143"
     inkscape:cx="-46.567797"
     inkscape:cy="70"
     inkscape:window-x="39"
     inkscape:window-y="1"
     inkscape:window-maximized="1"
     inkscape:current-layer="AVATAR" />
  <metadata
     id="AVATAR_metadata">
    <rdf:RDF>
      <cc:Work
         rdf:about="">
        <dc:format>image/svg+xml</dc:format>
        <dc:type
           rdf:resource="http://purl.org/dc/dcmitype/StillImage" />
        <dc:title></dc:title>
      </cc:Work>
    </rdf:RDF>
  </metadata>
  <g
     id="layer1"
     style="fill:#d40000;stroke:#000000;stroke-opacity:1">
    <path
       id="at"
       d="m67.09 75.84q-8.93 0-15.62-6.7-6.7-6.7-6.7-15.62 0-8.93 6.7-15.62 6.7-6.7 15.63-6.7l7.44 0 0-7.44q0-2.98-2.23-5.21-2.23-2.23-5.21-2.23l-29.76 0q-2.98 0-5.21 2.23-2.23 2.23-2.23 5.21l0 59.52q0 2.98 2.23 5.21 2.23 2.23 5.21 2.23l44.64 0q2.98 0 5.21 2.23 2.23 2.23 2.23 5.21 0 2.98-2.23 5.21-2.23 2.23-5.21 2.23l-44.64 0q-8.93 0-15.62-6.7-6.7-6.7-6.7-15.62l0-59.52q0-8.93 6.7-15.62 6.7-6.7 15.63-6.7l29.76 0q8.93 0 15.63 6.7 6.7 6.7 6.7 15.63l0 29.76q0 8.93-6.7 15.63-6.7 6.7-15.62 6.7zm0-29.76q-2.98 0-5.21 2.23-2.23 2.23-2.23 5.21 0 2.98 2.23 5.21 2.23 2.23 5.21 2.23 2.98 0 5.21-2.23 2.23-2.23 2.23-5.21 0-2.98-2.23-5.21-2.23-2.23-5.21-2.23z"
       style="-inkscape-font-specification:'White Rabbit, Normal';fill:#d40000;font-family:'White Rabbit';font-size:156.25;line-height:125;text-align:start;text-anchor:start;writing-mode:lr-tb;stroke:#000000;stroke-opacity:1" />
  </g>
</svg>
