<?xml version="1.0" encoding="UTF-8" standalone="no"?>
<svg
   xmlns:dc="http://purl.org/dc/elements/1.1/"
   xmlns:rdf="http://www.w3.org/1999/02/22-rdf-syntax-ns#"
   xmlns:svg="http://www.w3.org/2000/svg"
   xmlns="http://www.w3.org/2000/svg"
   width="730"
   height="110"
   viewBox="0 0 730 110"
   id="T3KN0KRAT_Logo"
  >
  <path
     d="m 6.3391483,1.6893814 82.4700017,0 q 0.88,0 1.76,0.44 1.03,0.29 1.76,1.03 0.88,0.59 1.46,1.46 0.59,0.73 0.59,1.76 l 0,13.6200046 q 0,0.73 -0.44,1.46 -0.44,0.73 -1.17,1.32 -0.73,0.59 -1.61,0.88 -0.73,0.29 -1.46,0.29 l -29.44,0 q -0.73,0 -1.61,0.29 -0.88,0.29 -1.61,0.73 -0.73,0.44 -1.17,1.03 -0.44,0.59 -0.44,1.32 l 0,76.609994 q 0,0.59 -0.29,1.32 -0.15,0.59 -0.59,1.17 -0.29,0.59 -0.88,1.03 -0.44,0.29 -1.03,0.29 l -7.47,0 q -0.73,0 -1.32,-0.29 -0.59,-0.44 -1.03,-1.03 -0.44,-0.59 -0.73,-1.17 -0.29,-0.73 -0.29,-1.32 l 0,-87.299994 q 0,-0.73 -0.44,-1.46 -0.29,-0.73 -0.88,-1.32 -0.44,-0.73 -1.17,-1.03 -0.59,-0.44 -1.32,-0.44 l -31.6400017,0 q -0.44,0 -1.03,-0.15 -0.59,-0.29 -1.03,-0.59 -0.44,-0.29 -0.73,-0.73 -0.29,-0.44 -0.29,-1.0300042 l 0,-5.5700004 q 0,-0.59 0.29,-1.03 0.29,-0.44 0.73,-0.73 0.44,-0.44 1.03,-0.59 0.59,-0.29 1.03,-0.29 z"
     class="s0"
     style="font-size:150px;line-height:125;font-family:Bitwise;-inkscape-font-specification:'Bitwise, Normal';text-align:start;writing-mode:lr-tb;text-anchor:start"
     id="T" />
  <path
     d="m 170.22569,1.7093814 q 1.03,0 2.2,0.29 1.32,0.29 2.34,0.88 1.03,0.59 1.76,1.46 0.73,0.88 0.73,1.9 l 0,34.5700046 q 0,0.88 0.44,1.76 0.44,0.73 1.03,1.46 0.73,0.73 1.61,1.61 0.88,0.73 1.76,1.61 0.88,0.73 1.76,1.61 0.88,0.88 1.46,1.76 0.73001,0.88 1.17001,2.05 0.44,1.03 0.44,2.2 l 0,46.579994 q 0,1.17 -0.73,2.34 -0.59001,1.03 -1.76001,1.9 -1.03,0.88 -2.34,1.46 -1.17,0.59 -2.34,0.59 l -77.78,0 q -0.59,0 -1.32001,-0.15 -0.59001,-0.29 -1.17001,-0.73 -0.44,-0.44 -0.88,-0.88 -0.29,-0.59 -0.29,-1.03 l 0,-6.879997 q 0,-0.730003 0.29,-1.320003 0.44,-0.59 1.03,-1.03 0.73,-0.59 1.32001,-0.88 0.73001,-0.29 1.46001,-0.29 l 59.62,0 q 0.44,0 1.03,-0.15 0.59,-0.15 1.03,-0.44 0.44,-0.29 0.73,-0.59 0.29,-0.44 0.29,-1.03 l 0,-32.809994 q 0,-0.29 -0.29,-0.59 -0.15,-0.44 -0.44,-0.73 -0.15,-0.29 -0.59,-0.44 -0.29,-0.15 -0.59,-0.15 l -59.91,0 q -0.73,0 -1.61,-0.15 -0.88001,-0.29 -1.61002,-0.59 -0.73,-0.44 -1.32,-1.03 -0.44,-0.59 -0.44,-1.32 l 0,-6.45 q 0,-0.59 0.29,-1.17 0.44,-0.73 0.88,-1.17 0.59,-0.44 1.17001,-0.73 0.73001,-0.29 1.32001,-0.29 l 59.18,0 q 0.73,0 1.32,-0.29 0.73,-0.44 1.32,-0.88 0.59,-0.59 0.88,-1.17 0.44,-0.73 0.44,-1.32 l 0,-24.17 q 0,-0.59 -0.44,-1.03 -0.29,-0.44 -0.88,-0.88 -0.44,-0.44 -1.03,-0.59 -0.59,-0.29 -1.17,-0.29 l -59.62,0 q -0.59,0 -1.17001,-0.15 -0.59001,-0.15 -1.17001,-0.44 -0.59,-0.29 -1.03,-0.73 -0.29,-0.44 -0.29,-1.03 l 0,-6.7400046 q 0,-0.59 0.29,-1.17 0.29,-0.59 0.73,-1.03 0.44,-0.59 1.03,-0.88 0.59001,-0.29 1.17002,-0.29 l 68.7,0 z"
     class="s0"
     style="font-size:150px;line-height:125;font-family:Bitwise;-inkscape-font-specification:'Bitwise, Normal';text-align:start;writing-mode:lr-tb;text-anchor:start"
     id="3" />
  <g
     transform="translate(11.574098,-0.5340886)"
     id="first_K">
    <rect
       style="fill:#d40000;fill-opacity:1;stroke:#000000;stroke-width:0.99263573;stroke-opacity:1"
       width="14.319863"
       height="105.72611"
       x="249.59918"
       y="2.0510385"
       id="first_K_vert" />
    <path
       style="fill:#d40000;fill-opacity:1;stroke:#000000;stroke-width:0.99263573;stroke-opacity:1"
       d="m 176.48633,2.0507812 52.86133,52.8632808 -52.86133,52.861328 20.25195,0 42.73633,-42.736328 10.125,-10.125 -10.125,-10.126953 -42.73828,-42.7363278 -20.25,0 z"
       id="first_K_legs" />
  </g>
  <path
     d="m 279.92604,6.0893814 q 0,-0.59 0.15,-1.32 0.15,-0.88 0.59,-1.46 0.44,-0.73 0.88,-1.17 0.59,-0.44 1.17,-0.44 l 7.18,0 q 1.17,0 2.49,0.59 1.32,0.44 2.05,1.32 l 62.55,87.5999966 0,-85.2499966 q 0,-0.73 0.15,-1.32 0.29,-0.73 0.59,-1.32 0.44,-0.59 0.88,-1.03 0.59,-0.44 1.17,-0.44 l 6.74,0 q 0.73,0 1.32,0.44 0.59,0.44 1.03,1.17 0.44,0.59 0.73,1.46 0.29,0.73 0.29,1.46 l 0,95.3599986 q 0,0.73 -0.15,1.9 -0.15,1.03 -0.59,1.9 -0.29,0.88 -0.88,1.61 -0.44,0.59 -1.32,0.59 l -8.5,0 q -1.76,0 -3.52,-0.88 -1.76,-1.03 -2.93,-2.49 l -60.5,-81.449994 0,19.48 q 0,1.32 0.29,2.78 0.44,1.32 1.03,2.64 0.73,1.17 1.46,2.49 0.88,1.17 1.76,2.49 0.88,1.17 1.61,2.49 0.88,1.17 1.46,2.49 0.73,1.32 1.03,2.64 0.44,1.32 0.44,2.78 l 0,41.309994 q 0,0.73 -0.44,1.32 -0.29,0.44 -0.88,0.88 -0.44,0.44 -1.17,0.73 -0.73,0.29 -1.32,0.29 l -13.33,0 q -0.59,0 -1.32,-0.29 -0.59,-0.29 -1.17,-0.73 -0.44,-0.44 -0.73,-1.03 -0.29,-0.59 -0.29,-1.17 l 0,-98.4399986 z"
     class="s0"
     style="font-size:150px;line-height:125;font-family:Bitwise;-inkscape-font-specification:'Bitwise, Normal';text-align:start;writing-mode:lr-tb;text-anchor:start"
     id="N" />
  <path
     d="m 380.70258,1.6793814 76.17,0 q 1.32,0 2.64,0.59 1.32,0.59 2.2,1.46 0.88,0.88 1.46,2.2 0.59,1.32 0.59,2.64 l 0,92.1399986 q 0,1.46 -0.59,2.78 -0.59,1.32 -1.46,2.2 -0.88,0.88 -2.2,1.46 -1.32,0.59 -2.64,0.59 l -76.17,0 q -1.46,0 -2.78,-0.59 -1.17,-0.59 -2.2,-1.46 -0.88,-0.88 -1.46,-2.2 -0.44,-1.32 -0.44,-2.78 l 0,-92.1399986 q 0,-1.32 0.44,-2.64 0.59,-1.32 1.46,-2.2 1.03,-0.88 2.2,-1.46 1.32,-0.59 2.78,-0.59 z m 9.52,11.4300046 q -1.32,0 -2.34,0.88 -0.88,0.88 -0.88,2.05 l 0,76.319994 q 0,1.17 0.88,2.05 1.03,0.88 2.34,0.88 l 48.93,0 q 1.32,0 2.2,-0.88 1.03,-0.88 1.03,-2.05 l 0,-28.269994 q 0,-1.32 0.29,-2.64 0.29,-1.46 0.73,-2.93 0.59,-1.46 1.32,-2.78 0.73,-1.46 1.46,-2.78 0.73,-1.46 1.32,-2.64 0.73,-1.32 1.17,-2.34 0.59,-1.17 0.88,-2.05 0.44,-0.88 0.44,-1.46 l 0,-28.42 q 0,-1.17 -1.03,-2.05 -0.88,-0.88 -2.2,-0.88 l -56.54,0 z"
     class="s0"
     style="font-size:150px;line-height:125;font-family:Bitwise;-inkscape-font-specification:'Bitwise, Normal';text-align:start;writing-mode:lr-tb;text-anchor:start"
     id="0" />
  <g
     transform="translate(22.56144,-0.4655886)"
     id="last_K">
    <rect
       style="fill:#d40000;fill-opacity:1;stroke:#000000;stroke-width:0.99263573;stroke-opacity:1"
       width="14.319863"
       height="105.72611"
       x="515.44855"
       y="1.9825383"
       id="last_K_vert" />
    <path
       style="fill:#d40000;fill-opacity:1;stroke:#000000;stroke-width:0.99263573;stroke-opacity:1"
       d="m 442.33594,1.9824219 52.86328,52.8613281 -52.86328,52.86328 20.25195,0 42.73633,-42.736327 10.125,-10.125 -10.125,-10.126953 -42.73828,-42.7363281 -20.25,0 z"
       id="last_K_legs" />
  </g>
  <path
     d="m 556.76268,104.08938 0,-96.6799986 q 0,-0.88 0.44,-1.9 0.44,-1.03 1.17,-1.76 0.73,-0.88 1.61,-1.32 1.03,-0.59 1.9,-0.59 l 65.92,0 q 1.03,0 2.2,0.59 1.17,0.44 2.05,1.32 1.03,0.73 1.61,1.9 0.59,1.03 0.59,2.05 l 0,36.9100046 q 0,1.03 0.59,1.76 0.59,0.59 1.46,1.03 1.03,0.44 2.2,0.73 1.17,0.29 2.34,0.73 1.32,0.29 2.49,0.73 1.17,0.44 2.05,1.32 0.88,0.73 1.46,1.9 0.59,1.03 0.59,2.78 l 0,49.219994 q 0,0.44 -0.15,1.03 -0.15,0.44 -0.44,0.88 -0.15,0.44 -0.44,0.73 -0.29,0.29 -0.73,0.29 l -6.88,0 q -0.59,0 -1.17,-0.15 -0.44,-0.29 -1.03,-0.59 -0.44,-0.44 -0.73,-0.88 -0.29,-0.59 -0.29,-1.03 l 0,-41.309994 q 0,-0.59 -0.44,-1.17 -0.44,-0.73 -1.17,-1.17 -0.59,-0.44 -1.32,-0.59 -0.73,-0.29 -1.46,-0.29 l -48.63,0 q -0.59,0 -1.32,0.29 -0.73,0.29 -1.46,0.73 -0.59,0.44 -1.03,1.17 -0.29,0.59 -0.29,1.32 l 0,40.429994 q 0,0.59 -0.44,1.17 -0.29,0.59 -0.88,1.03 -0.44,0.44 -1.17,0.73 -0.59,0.29 -1.17,0.29 l -14.21,0 q -0.59,0 -1.32,-0.29 -0.73,-0.29 -1.32,-0.73 -0.44,-0.59 -0.88,-1.17 -0.29,-0.73 -0.29,-1.46 z m 15.23,-89.209994 q -0.88,0 -1.46,0.59 -0.59,0.59 -0.59,1.32 l 0,28.56 q 0,0.73 0.59,1.32 0.59,0.59 1.46,0.59 l 47.31,0 q 0.88,0 1.46,-0.59 0.59,-0.59 0.59,-1.32 l 0,-28.56 q 0,-0.73 -0.59,-1.32 -0.59,-0.59 -1.46,-0.59 l -47.31,0 z"
     class="s0"
     style="font-size:150px;line-height:125;font-family:Bitwise;-inkscape-font-specification:'Bitwise, Normal';text-align:start;writing-mode:lr-tb;text-anchor:start"
     id="R" />
  <path
     d="m 703.43919,77.979382 q -8.93,0 -15.62,-6.7 -6.70001,-6.7 -6.70001,-15.619996 0,-8.93 6.70001,-15.62 6.7,-6.7 15.63,-6.7 l 7.44,0 0,-7.44 q 0,-2.98 -2.23,-5.21 -2.23,-2.23 -5.21,-2.23 l -29.76,0 q -2.98,0 -5.21,2.23 -2.23001,2.23 -2.23001,5.21 l 0,59.519994 q 0,2.98 2.23001,5.21 2.23,2.23 5.21,2.23 l 44.64,0 q 2.98,0 5.21,2.23 2.23,2.23 2.23,5.21 0,2.98 -2.23,5.21 -2.23,2.23 -5.21,2.23 l -44.64,0 q -8.93,0 -15.62,-6.7 -6.70001,-6.7 -6.70001,-15.62 l 0,-59.519994 q 0,-8.93 6.70001,-15.62 6.7,-6.7000046 15.63,-6.7000046 l 29.76,0 q 8.92999,0 15.63,6.7000046 6.7,6.7 6.7,15.63 l 0,29.76 q 0,8.929996 -6.7,15.629996 -6.70001,6.7 -15.62,6.7 z m 0,-29.759996 q -2.98,0 -5.21,2.23 -2.23001,2.23 -2.23001,5.21 0,2.98 2.23001,5.21 2.23,2.23 5.21,2.23 2.98,0 5.21,-2.23 2.23,-2.23 2.23,-5.21 0,-2.98 -2.23,-5.21 -2.23,-2.23 -5.21,-2.23 z"
     style="font-size:156.25px;line-height:125;font-family:'White Rabbit';-inkscape-font-specification:'White Rabbit, Normal';text-align:start;writing-mode:lr-tb;text-anchor:start"
     id="at" />
</svg>
